<svg xmlns="http://www.w3.org/2000/svg" viewBox="0 0 1200 340" width="1200" height="340" role="img" aria-label="Poras Nagar — Production Tech Stack">
  <defs>
    <linearGradient id="canvas" x1="0" y1="0" x2="1" y2="1">
      <stop offset="0" stop-color="#ffffff"/>
      <stop offset="1" stop-color="#f4f6fa"/>
    </linearGradient>

    <radialGradient id="bloomA" cx="0.15" cy="0.40" r="0.55">
      <stop offset="0" stop-color="#0891b2" stop-opacity="0.12"/>
      <stop offset="1" stop-color="#0891b2" stop-opacity="0"/>
    </radialGradient>

    <radialGradient id="bloomB" cx="0.85" cy="0.65" r="0.55">
      <stop offset="0" stop-color="#6d28d9" stop-opacity="0.12"/>
      <stop offset="1" stop-color="#6d28d9" stop-opacity="0"/>
    </radialGradient>

    <pattern id="grid" width="40" height="40" patternUnits="userSpaceOnUse">
      <path d="M40 0H0V40" fill="none" stroke="#e3e8ef" stroke-width="1"/>
    </pattern>

    <clipPath id="frame"><rect width="1200" height="340" rx="16"/></clipPath>
  </defs>

  <style>
    .mono { font-family: ui-monospace, "SFMono-Regular", "SF Mono", Menlo, Consolas, monospace; }
    .sans { font-family: -apple-system, BlinkMacSystemFont, "Segoe UI", Roboto, Helvetica, Arial, sans-serif; }
    .beat { animation: beat 2.4s ease-in-out infinite; }
    @keyframes beat { 0%,100% { opacity: 1; } 50% { opacity: .3; } }
  </style>

  <g clip-path="url(#frame)">
    <rect width="1200" height="340" fill="url(#canvas)"/>
    <rect width="1200" height="340" fill="url(#grid)"/>
    <rect width="1200" height="340" fill="url(#bloomA)"/>
    <rect width="1200" height="340" fill="url(#bloomB)"/>

    <!-- Header Chrome -->
    <rect width="1200" height="48" fill="#eaeff5" opacity="0.85"/>
    <line x1="0" y1="48" x2="1200" y2="48" stroke="#e3e8ef" stroke-width="1"/>
    <circle cx="32" cy="24" r="5" fill="#dc2626"/>
    <circle cx="50" cy="24" r="5" fill="#d97706"/>
    <circle cx="68" cy="24" r="5" fill="#16a34a"/>
    <text class="mono" x="92" y="29" font-size="12.5" fill="#64748b" letter-spacing="0.05em">porasnagar / config / production_stack.yaml</text>
    <circle cx="1040" cy="24" r="4" fill="#0891b2" class="beat"/>
    <text class="mono" text-anchor="end" x="1168" y="29" font-size="12" fill="#64748b" letter-spacing="0.05em">18 production services active</text>

    <!-- 4 Category Columns -->
    <!-- Column 1: Backend & Distributed -->
    <g transform="translate(36, 72)">
      <rect width="268" height="240" rx="10" fill="#f8fafc" stroke="#e3e8ef" stroke-width="1"/>
      <rect x="0" y="0" width="268" height="36" rx="10" fill="#edf2f7"/>
      <rect x="0" y="26" width="268" height="10" fill="#edf2f7"/>
      <text class="mono" x="16" y="23" font-size="11" fill="#0891b2" font-weight="700" letter-spacing="0.08em">SYSTEMS &amp; BACKEND</text>
      
      <g transform="translate(14, 48)">
        <g transform="translate(0, 0)">
          <rect width="112" height="30" rx="6" fill="#ffffff" stroke="#0891b2" stroke-width="1" stroke-opacity="0.4"/>
          <text class="mono" x="12" y="19" font-size="11" fill="#1f2937">Python 3.12</text>
        </g>
        <g transform="translate(122, 0)">
          <rect width="112" height="30" rx="6" fill="#ffffff" stroke="#e2e8f0" stroke-width="1"/>
          <text class="mono" x="12" y="19" font-size="11" fill="#1f2937">FastAPI</text>
        </g>
        <g transform="translate(0, 42)">
          <rect width="112" height="30" rx="6" fill="#ffffff" stroke="#e2e8f0" stroke-width="1"/>
          <text class="mono" x="12" y="19" font-size="11" fill="#1f2937">Node.js</text>
        </g>
        <g transform="translate(122, 42)">
          <rect width="112" height="30" rx="6" fill="#ffffff" stroke="#e2e8f0" stroke-width="1"/>
          <text class="mono" x="12" y="19" font-size="11" fill="#1f2937">Express</text>
        </g>
        <g transform="translate(0, 84)">
          <rect width="112" height="30" rx="6" fill="#ffffff" stroke="#e2e8f0" stroke-width="1"/>
          <text class="mono" x="12" y="19" font-size="11" fill="#1f2937">RabbitMQ</text>
        </g>
        <g transform="translate(122, 84)">
          <rect width="112" height="30" rx="6" fill="#ffffff" stroke="#e2e8f0" stroke-width="1"/>
          <text class="mono" x="12" y="19" font-size="11" fill="#1f2937">Celery</text>
        </g>
        <g transform="translate(0, 126)">
          <rect width="234" height="30" rx="6" fill="#ffffff" stroke="#e2e8f0" stroke-width="1"/>
          <text class="mono" x="12" y="19" font-size="11" fill="#64748b">Meta WhatsApp Cloud API</text>
        </g>
      </g>
    </g>

    <!-- Column 2: AI & Machine Learning -->
    <g transform="translate(320, 72)">
      <rect width="268" height="240" rx="10" fill="#f8fafc" stroke="#e3e8ef" stroke-width="1"/>
      <rect x="0" y="0" width="268" height="36" rx="10" fill="#edf2f7"/>
      <rect x="0" y="26" width="268" height="10" fill="#edf2f7"/>
      <text class="mono" x="16" y="23" font-size="11" fill="#6d28d9" font-weight="700" letter-spacing="0.08em">AI &amp; MACHINE LEARNING</text>

      <g transform="translate(14, 48)">
        <g transform="translate(0, 0)">
          <rect width="112" height="30" rx="6" fill="#ffffff" stroke="#6d28d9" stroke-width="1" stroke-opacity="0.4"/>
          <text class="mono" x="12" y="19" font-size="11" fill="#1f2937">TensorFlow</text>
        </g>
        <g transform="translate(122, 0)">
          <rect width="112" height="30" rx="6" fill="#ffffff" stroke="#e2e8f0" stroke-width="1"/>
          <text class="mono" x="12" y="19" font-size="11" fill="#1f2937">PyTorch</text>
        </g>
        <g transform="translate(0, 42)">
          <rect width="112" height="30" rx="6" fill="#ffffff" stroke="#e2e8f0" stroke-width="1"/>
          <text class="mono" x="12" y="19" font-size="11" fill="#1f2937">scikit-learn</text>
        </g>
        <g transform="translate(122, 42)">
          <rect width="112" height="30" rx="6" fill="#ffffff" stroke="#e2e8f0" stroke-width="1"/>
          <text class="mono" x="12" y="19" font-size="11" fill="#1f2937">OpenCV</text>
        </g>
        <g transform="translate(0, 84)">
          <rect width="112" height="30" rx="6" fill="#ffffff" stroke="#e2e8f0" stroke-width="1"/>
          <text class="mono" x="12" y="19" font-size="11" fill="#1f2937">Pandas / NumPy</text>
        </g>
        <g transform="translate(122, 84)">
          <rect width="112" height="30" rx="6" fill="#ffffff" stroke="#e2e8f0" stroke-width="1"/>
          <text class="mono" x="12" y="19" font-size="11" fill="#1f2937">Regression</text>
        </g>
        <g transform="translate(0, 126)">
          <rect width="234" height="30" rx="6" fill="#ffffff" stroke="#e2e8f0" stroke-width="1"/>
          <text class="mono" x="12" y="19" font-size="11" fill="#64748b">Multi-Agent CI Tooling</text>
        </g>
      </g>
    </g>

    <!-- Column 3: Data & Ingestion -->
    <g transform="translate(604, 72)">
      <rect width="268" height="240" rx="10" fill="#f8fafc" stroke="#e3e8ef" stroke-width="1"/>
      <rect x="0" y="0" width="268" height="36" rx="10" fill="#edf2f7"/>
      <rect x="0" y="26" width="268" height="10" fill="#edf2f7"/>
      <text class="mono" x="16" y="23" font-size="11" fill="#b45309" font-weight="700" letter-spacing="0.08em">DATA &amp; DATABASES</text>

      <g transform="translate(14, 48)">
        <g transform="translate(0, 0)">
          <rect width="112" height="30" rx="6" fill="#ffffff" stroke="#b45309" stroke-width="1" stroke-opacity="0.4"/>
          <text class="mono" x="12" y="19" font-size="11" fill="#1f2937">PostgreSQL</text>
        </g>
        <g transform="translate(122, 0)">
          <rect width="112" height="30" rx="6" fill="#ffffff" stroke="#e2e8f0" stroke-width="1"/>
          <text class="mono" x="12" y="19" font-size="11" fill="#1f2937">Redis</text>
        </g>
        <g transform="translate(0, 42)">
          <rect width="112" height="30" rx="6" fill="#ffffff" stroke="#e2e8f0" stroke-width="1"/>
          <text class="mono" x="12" y="19" font-size="11" fill="#1f2937">MongoDB</text>
        </g>
        <g transform="translate(122, 42)">
          <rect width="112" height="30" rx="6" fill="#ffffff" stroke="#e2e8f0" stroke-width="1"/>
          <text class="mono" x="12" y="19" font-size="11" fill="#1f2937">MySQL</text>
        </g>
        <g transform="translate(0, 84)">
          <rect width="112" height="30" rx="6" fill="#ffffff" stroke="#e2e8f0" stroke-width="1"/>
          <text class="mono" x="12" y="19" font-size="11" fill="#1f2937">B-Tree Indices</text>
        </g>
        <g transform="translate(122, 84)">
          <rect width="112" height="30" rx="6" fill="#ffffff" stroke="#e2e8f0" stroke-width="1"/>
          <text class="mono" x="12" y="19" font-size="11" fill="#1f2937">Time-Series</text>
        </g>
        <g transform="translate(0, 126)">
          <rect width="234" height="30" rx="6" fill="#ffffff" stroke="#e2e8f0" stroke-width="1"/>
          <text class="mono" x="12" y="19" font-size="11" fill="#64748b">Dead-Letter Queue Replay</text>
        </g>
      </g>
    </g>

    <!-- Column 4: Frontend & Infra -->
    <g transform="translate(888, 72)">
      <rect width="276" height="240" rx="10" fill="#f8fafc" stroke="#e3e8ef" stroke-width="1"/>
      <rect x="0" y="0" width="276" height="36" rx="10" fill="#edf2f7"/>
      <rect x="0" y="26" width="276" height="10" fill="#edf2f7"/>
      <text class="mono" x="16" y="23" font-size="11" fill="#16a34a" font-weight="700" letter-spacing="0.08em">FRONTEND &amp; PLATFORMS</text>

      <g transform="translate(14, 48)">
        <g transform="translate(0, 0)">
          <rect width="118" height="30" rx="6" fill="#ffffff" stroke="#16a34a" stroke-width="1" stroke-opacity="0.4"/>
          <text class="mono" x="12" y="19" font-size="11" fill="#1f2937">TypeScript</text>
        </g>
        <g transform="translate(128, 0)">
          <rect width="118" height="30" rx="6" fill="#ffffff" stroke="#e2e8f0" stroke-width="1"/>
          <text class="mono" x="12" y="19" font-size="11" fill="#1f2937">React 18</text>
        </g>
        <g transform="translate(0, 42)">
          <rect width="118" height="30" rx="6" fill="#ffffff" stroke="#e2e8f0" stroke-width="1"/>
          <text class="mono" x="12" y="19" font-size="11" fill="#1f2937">Next.js</text>
        </g>
        <g transform="translate(128, 42)">
          <rect width="118" height="30" rx="6" fill="#ffffff" stroke="#e2e8f0" stroke-width="1"/>
          <text class="mono" x="12" y="19" font-size="11" fill="#1f2937">TailwindCSS</text>
        </g>
        <g transform="translate(0, 84)">
          <rect width="118" height="30" rx="6" fill="#ffffff" stroke="#e2e8f0" stroke-width="1"/>
          <text class="mono" x="12" y="19" font-size="11" fill="#1f2937">Docker</text>
        </g>
        <g transform="translate(128, 84)">
          <rect width="118" height="30" rx="6" fill="#ffffff" stroke="#e2e8f0" stroke-width="1"/>
          <text class="mono" x="12" y="19" font-size="11" fill="#1f2937">GitHub Actions</text>
        </g>
        <g transform="translate(0, 126)">
          <rect width="246" height="30" rx="6" fill="#ffffff" stroke="#e2e8f0" stroke-width="1"/>
          <text class="mono" x="12" y="19" font-size="11" fill="#64748b">Linux Environment / Bash</text>
        </g>
      </g>
    </g>

    <line x1="0" y1="339" x2="1200" y2="339" stroke="#e3e8ef" stroke-width="1"/>
  </g>
</svg>